<?xml version="1.0" encoding="UTF-8"?><svg xmlns="http://www.w3.org/2000/svg" xmlns:xlink="http://www.w3.org/1999/xlink" height="77.7" preserveAspectRatio="xMidYMid meet" version="1.0" viewBox="-0.0 -0.1 69.5 77.7" width="69.5" zoomAndPan="magnify"><g data-name="2" id="change1_1"><path d="M69.48,41.582a5.564,5.564,0,0,0-.3-1.477A5.628,5.628,0,0,0,67.86,38a5.529,5.529,0,0,0-3.51-1.6,5.778,5.778,0,0,0-.19-.77,5.463,5.463,0,0,0-1.38-2.22l-.11-.11a5.538,5.538,0,0,0-3.46-1.5l-.38-.02a5.56,5.56,0,0,0-3.95,1.63L41.82,46.482l-9.258.007V42.575a34.459,34.459,0,0,0,13.792-9.534,17.793,17.793,0,0,0,11.792-8.953,17.373,17.373,0,0,0,1.109-12.474,1.4,1.4,0,0,0-1.272-1.333c-.035,0-.07-.008-.106-.008h-.019a1.684,1.684,0,0,0-.607.125,17.805,17.805,0,0,0-10.334,7.165,17.68,17.68,0,0,0-2.6,13.3,31.278,31.278,0,0,1-11.758,8.508v-6.41c1.105-.939,8.542-7.466,8.105-17.211C40.423,10.316,36.884,3.735,31.978.267a1.8,1.8,0,0,0-1.856,0c-4.9,3.458-8.455,10.02-8.689,15.481-.419,9.728,7.034,16.216,8.129,17.139v6.458a31.289,31.289,0,0,1-11.7-8.484,17.68,17.68,0,0,0-2.6-13.3A17.821,17.821,0,0,0,4.65,10.318a1.527,1.527,0,0,0-.453-.036,1.307,1.307,0,0,0-1.413.993A19.339,19.339,0,0,0,3.811,24.088c.3.579,3.547,6.654,10.281,8.708a15.23,15.23,0,0,0,1.928.455,34.423,34.423,0,0,0,13.542,9.3v3.941L18.09,46.5l-.07-.01a5.556,5.556,0,0,0-2.35.34,5.428,5.428,0,0,0-1.91,1.2L.44,61.342a1.448,1.448,0,0,0-.43,1.07V76l-.01.12A1.49,1.49,0,0,0,1.48,77.6l12.06-.01a1.473,1.473,0,0,0,1.07-.45l2.92-3.05,27.54-6.93a9.5,9.5,0,0,0,2.78-1.51,22.452,22.452,0,0,0,2.47-2.21l17.54-17.53a5.557,5.557,0,0,0,1-1.371A5.653,5.653,0,0,0,69.48,41.582Zm-12.807-27.9a14.6,14.6,0,0,1-7.239,15.3,34.171,34.171,0,0,0,3.378-6.755c.667-1.815-2.231-2.6-2.893-.8A30.184,30.184,0,0,1,46.991,27.3,14.6,14.6,0,0,1,56.673,13.686ZM5.3,13.621a14.586,14.586,0,0,1,9.9,13.674,30.087,30.087,0,0,1-2.927-5.863c-.662-1.8-3.561-1.017-2.893.8a34.077,34.077,0,0,0,3.521,6.964A14.607,14.607,0,0,1,5.3,13.621ZM56.97,35.5a2.642,2.642,0,0,1,1.86-.76h.14a2.641,2.641,0,0,1,1.73.76,2.814,2.814,0,0,1,.66,1.05,1.669,1.669,0,0,1,.08.4A5.759,5.759,0,0,0,59.96,38L47.75,50.212a5.482,5.482,0,0,0-1.31-2.1,5.8,5.8,0,0,0-1.18-.89ZM24.416,16.13A17.246,17.246,0,0,1,31.05,3.3,17.246,17.246,0,0,1,37.684,16.13a17.326,17.326,0,0,1-5.122,12.736V16.308a1.5,1.5,0,0,0-3,0V28.889A17.325,17.325,0,0,1,24.416,16.13ZM66.54,41.962a2.652,2.652,0,0,1-.77,1.86L48.21,61.382a18.965,18.965,0,0,1-2.13,1.91,6.522,6.522,0,0,1-1.81,1.03l-27.86,7.01a1.411,1.411,0,0,0-.75.45l-2.74,2.86H2.96V63.012l12.85-12.86a2.57,2.57,0,0,1,2.02-.71l24.66-.01a2.618,2.618,0,0,1,1.75.67l.1.1a2.612,2.612,0,0,1,.78,1.7v.16a2.619,2.619,0,0,1-.78,1.86,2.587,2.587,0,0,1-1.85.77H25.47a1.48,1.48,0,1,0,0,2.96H42.49a5.545,5.545,0,0,0,3.95-1.64,5.648,5.648,0,0,0,.87-1.17L62.05,40.1a2.576,2.576,0,0,1,1.86-.77h.13a2.6,2.6,0,0,1,1.73.76,2.7,2.7,0,0,1,.77,1.73Z"/></g></svg>