<?xml version="1.0" encoding="UTF-8"?><!-- Generator: Adobe Illustrator 21.0.2, SVG Export Plug-In . SVG Version: 6.00 Build 0)  --><svg xmlns="http://www.w3.org/2000/svg" enable-background="new 0 0 156.8 149.4" id="Layer_1" version="1.1" viewBox="0 0 156.8 149.4" x="0px" xml:space="preserve" y="0px">
<g id="change1_1"><path d="m80.8 1.5l22.2 44.9c0.4 0.8 1.1 1.3 2 1.4l49.6 7.2c2.2 0.3 3 3 1.5 4.5l-35.9 35c-0.6 0.6-0.9 1.5-0.8 2.3l8.5 49.4c0.4 2.2-1.9 3.8-3.8 2.8l-44.4-23.3c-0.8-0.4-1.7-0.4-2.5 0l-44.4 23.3c-1.9 1-4.2-0.6-3.8-2.8l8.5-49.4c0.1-0.9-0.1-1.7-0.8-2.3l-35.9-35c-1.6-1.5-0.7-4.2 1.5-4.5l49.6-7.2c0.9-0.1 1.6-0.7 2-1.4l22.1-44.9c1-2 3.8-2 4.8 0z" fill="#7D8594"/></g>
</svg>